{"title":"Hidden 3D 2011 R5 XviD Ac3 Feel-Free","uid":6413327,"size":963509749,"categoryP":"video","categoryS":"movies","magnet":"?xt=urn:btih:f156533a1aad7a7ef6a7c353b73b298aecb5101c&amp;dn=Hidden+3D+2011+R5+XviD+Ac3+Feel-Free&amp;tr=udp%3A%2F%2Ftracker.openbittorrent.com%3A80&amp;tr=udp%3A%2F%2Fopen.demonii.com%3A1337&amp;tr=udp%3A%2F%2Ftracker.coppersurfer.tk%3A6969&amp;tr=udp%3A%2F%2Fexodus.desync.com%3A6969","seeders":1,"leechers":1,"uploader":"hiest","files":-1,"time":1306075066,"description":"######## ######## ######## ##          ######## ########  ######## ######## \n##       ##       ##       ##          ##       ##     ## ##       ##       \n##       ##       ##       ##          ##       ##     ## ##       ##       \n######   ######   ######   ##          ######   ########  ######   ######   \n##       ##       ##       ##          ##       ##   ##   ##       ##       \n##       ##       ##       ##          ##       ##    ##  ##       ##       \n##       ######## ######## ########    ##       ##     ## ######## ########   \n\n Genre:Horror | Thriller\n Language:English\n IMDb:\n &lt;a href=&quot; http://www.imdb.com/title/tt1664664/&quot; rel=&quot;nofollow&quot; target=&quot;_NEW&quot;&gt; http://www.imdb.com/title/tt1664664/&lt;/a&gt;\n Source:DVD9 Thanks!\n\n Format : AVI\n Format/Info : Audio Video Interleave\n File size : 918 MiB\n Duration : 1h 18mn\n Overall bit rate : 1 644 Kbps\n\n Video\n ID : 0\n Format : MPEG-4 Visual\n Format profile : Advanced Simple@L5\n Format settings, BVOP : Yes\n Format settings, QPel : No\n Format settings, GMC : No warppoints\n Format settings, Matrix : Default (H.263)\n Codec ID : XVID\n Codec ID/Hint : XviD\n Duration : 1h 18mn\n Bit rate : 1 186 Kbps\n Width : 640 pixels\n Height : 344 pixels\n Display aspect ratio : 1.860\n Frame rate : 25.000 fps\n Color space : YUV\n Chroma subsampling : 4:2:0\n Bit depth : 8 bits\n Scan type : Progressive\n Bits/(Pixel*Frame) : 0.216\n Stream size : 662 MiB (72%)\n Writing library : XviD 1.2.1 (UTC 2008-12-04)\n\n Audio\n ID : 1\n Format : AC-3\n Format/Info : Audio Coding 3\n Mode extension : CM (complete main)\n Codec ID : 2000\n Duration : 1h 18mn\n Bit rate mode : Constant\n Bit rate : 448 Kbps\n Channel(s) : 6 channels\n Channel positions : Front: L C R, Side: L R, LFE\n Sampling rate : 48.0 KHz\n Bit depth : 16 bits\n Stream size : 250 MiB (27%)\n Alignment : Aligned on interleaves\n Interleave, duration : 40 ms (1.00 video frame)\n Interleave, preload duration : 512 ms\n\n######## ######## ######## ##          ######## ########  ######## ######## \n##       ##       ##       ##          ##       ##     ## ##       ##       \n##       ##       ##       ##          ##       ##     ## ##       ##       \n######   ######   ######   ##          ######   ########  ######   ######   \n##       ##       ##       ##          ##       ##   ##   ##       ##       \n##       ##       ##       ##          ##       ##    ##  ##       ##       \n##       ######## ######## ########    ##       ##     ## ######## ########  ","torrent":{"xt":"urn:btih:f156533a1aad7a7ef6a7c353b73b298aecb5101c","amp;dn":"Hidden+3D+2011+R5+XviD+Ac3+Feel-Free","amp;tr":["udp%3A%2F%2Ftracker.openbittorrent.com%3A80","udp%3A%2F%2Fopen.demonii.com%3A1337","udp%3A%2F%2Ftracker.coppersurfer.tk%3A6969","udp%3A%2F%2Fexodus.desync.com%3A6969"],"infoHash":"f156533a1aad7a7ef6a7c353b73b298aecb5101c","infoHashBuffer":{"type":"Buffer","data":[241,86,83,58,26,173,122,126,246,167,195,83,183,59,41,138,236,181,16,28]},"announce":[],"urlList":[]}}